<mxfile host="app.diagrams.net" modified="2022-04-22T08:45:12.846Z" agent="5.0 (Windows NT 10.0; Win64; x64) AppleWebKit/537.36 (KHTML, like Gecko) Chrome/100.0.4896.88 Safari/537.36" etag="rXS1_kh7LIEtjInH7XdF" version="17.4.5" type="github">
  <diagram id="tml-jXRMbO2Q2C7IZaB5" name="Page-1">
    <mxGraphModel dx="2543" dy="3331" grid="1" gridSize="10" guides="1" tooltips="1" connect="1" arrows="1" fold="1" page="1" pageScale="1" pageWidth="827" pageHeight="1169" math="0" shadow="0">
      <root>
        <mxCell id="0" />
        <mxCell id="1" parent="0" />
        <mxCell id="WBOo7a8dxVO5zlxq-I5M-30" value="" style="rounded=0;whiteSpace=wrap;html=1;fillColor=#f5f5f5;fontColor=#333333;strokeColor=#666666;" vertex="1" parent="1">
          <mxGeometry x="3570" y="317" width="930" height="690" as="geometry" />
        </mxCell>
        <mxCell id="6nEjadPt3HJGxFAMw-uQ-2" value="" style="rounded=0;whiteSpace=wrap;html=1;fillColor=#f5f5f5;fontColor=#333333;strokeColor=#666666;" parent="1" vertex="1">
          <mxGeometry x="2210" y="-400" width="930" height="830" as="geometry" />
        </mxCell>
        <mxCell id="t65GG9oc5vfODjaYZF34-7" value="" style="rounded=0;whiteSpace=wrap;html=1;fillColor=#f5f5f5;fontColor=#333333;strokeColor=#666666;" parent="1" vertex="1">
          <mxGeometry x="3570" y="-400" width="1140" height="690" as="geometry" />
        </mxCell>
        <mxCell id="Ur9Uyc6lbxFKVlAjhO0s-89" value="" style="rounded=0;whiteSpace=wrap;html=1;fillColor=#f5f5f5;fontColor=#333333;strokeColor=#666666;" parent="1" vertex="1">
          <mxGeometry x="-100" y="-210" width="1090" height="1280" as="geometry" />
        </mxCell>
        <mxCell id="Ur9Uyc6lbxFKVlAjhO0s-36" style="edgeStyle=orthogonalEdgeStyle;rounded=0;orthogonalLoop=1;jettySize=auto;html=1;exitX=1;exitY=0.3333333333333333;exitDx=0;exitDy=0;exitPerimeter=0;entryX=0;entryY=0.5;entryDx=0;entryDy=0;fillColor=#dae8fc;strokeColor=#6c8ebf;" parent="1" source="Ur9Uyc6lbxFKVlAjhO0s-1" target="Ur9Uyc6lbxFKVlAjhO0s-25" edge="1">
          <mxGeometry relative="1" as="geometry">
            <Array as="points">
              <mxPoint x="250" y="220" />
              <mxPoint x="250" y="30" />
              <mxPoint x="375" y="30" />
            </Array>
          </mxGeometry>
        </mxCell>
        <mxCell id="Ur9Uyc6lbxFKVlAjhO0s-37" style="edgeStyle=orthogonalEdgeStyle;rounded=0;orthogonalLoop=1;jettySize=auto;html=1;exitX=1;exitY=0.3333333333333333;exitDx=0;exitDy=0;exitPerimeter=0;entryX=0;entryY=0.5;entryDx=0;entryDy=0;fillColor=#dae8fc;strokeColor=#6c8ebf;" parent="1" source="Ur9Uyc6lbxFKVlAjhO0s-1" target="Ur9Uyc6lbxFKVlAjhO0s-21" edge="1">
          <mxGeometry relative="1" as="geometry">
            <Array as="points">
              <mxPoint x="250" y="220" />
              <mxPoint x="250" y="80" />
              <mxPoint x="375" y="80" />
            </Array>
          </mxGeometry>
        </mxCell>
        <mxCell id="Ur9Uyc6lbxFKVlAjhO0s-38" style="edgeStyle=orthogonalEdgeStyle;rounded=0;orthogonalLoop=1;jettySize=auto;html=1;exitX=1;exitY=0.3333333333333333;exitDx=0;exitDy=0;exitPerimeter=0;entryX=0;entryY=0.5;entryDx=0;entryDy=0;fillColor=#dae8fc;strokeColor=#6c8ebf;" parent="1" source="Ur9Uyc6lbxFKVlAjhO0s-1" target="Ur9Uyc6lbxFKVlAjhO0s-5" edge="1">
          <mxGeometry relative="1" as="geometry">
            <Array as="points">
              <mxPoint x="250" y="220" />
              <mxPoint x="250" y="160" />
            </Array>
          </mxGeometry>
        </mxCell>
        <mxCell id="Ur9Uyc6lbxFKVlAjhO0s-39" style="edgeStyle=orthogonalEdgeStyle;rounded=0;orthogonalLoop=1;jettySize=auto;html=1;exitX=1;exitY=0.3333333333333333;exitDx=0;exitDy=0;exitPerimeter=0;entryX=0;entryY=0.5;entryDx=0;entryDy=0;fillColor=#dae8fc;strokeColor=#6c8ebf;" parent="1" source="Ur9Uyc6lbxFKVlAjhO0s-1" target="Ur9Uyc6lbxFKVlAjhO0s-4" edge="1">
          <mxGeometry relative="1" as="geometry">
            <Array as="points">
              <mxPoint x="375" y="220" />
            </Array>
          </mxGeometry>
        </mxCell>
        <mxCell id="Ur9Uyc6lbxFKVlAjhO0s-40" style="edgeStyle=orthogonalEdgeStyle;rounded=0;orthogonalLoop=1;jettySize=auto;html=1;exitX=1;exitY=0.3333333333333333;exitDx=0;exitDy=0;exitPerimeter=0;entryX=0;entryY=0.5;entryDx=0;entryDy=0;fillColor=#dae8fc;strokeColor=#6c8ebf;" parent="1" source="Ur9Uyc6lbxFKVlAjhO0s-1" target="Ur9Uyc6lbxFKVlAjhO0s-8" edge="1">
          <mxGeometry relative="1" as="geometry">
            <Array as="points">
              <mxPoint x="250" y="220" />
              <mxPoint x="250" y="420" />
              <mxPoint x="375" y="420" />
            </Array>
          </mxGeometry>
        </mxCell>
        <mxCell id="Ur9Uyc6lbxFKVlAjhO0s-41" style="edgeStyle=orthogonalEdgeStyle;rounded=0;orthogonalLoop=1;jettySize=auto;html=1;exitX=1;exitY=0.3333333333333333;exitDx=0;exitDy=0;exitPerimeter=0;entryX=0;entryY=0.5;entryDx=0;entryDy=0;fillColor=#dae8fc;strokeColor=#6c8ebf;" parent="1" source="Ur9Uyc6lbxFKVlAjhO0s-1" target="Ur9Uyc6lbxFKVlAjhO0s-9" edge="1">
          <mxGeometry relative="1" as="geometry">
            <Array as="points">
              <mxPoint x="250" y="220" />
              <mxPoint x="250" y="490" />
            </Array>
          </mxGeometry>
        </mxCell>
        <mxCell id="Ur9Uyc6lbxFKVlAjhO0s-1" value="비회원" style="shape=umlActor;verticalLabelPosition=bottom;verticalAlign=top;html=1;outlineConnect=0;fillColor=#dae8fc;strokeColor=#6c8ebf;" parent="1" vertex="1">
          <mxGeometry x="50" y="200" width="30" height="60" as="geometry" />
        </mxCell>
        <mxCell id="Ur9Uyc6lbxFKVlAjhO0s-26" style="edgeStyle=orthogonalEdgeStyle;rounded=0;orthogonalLoop=1;jettySize=auto;html=1;exitX=0;exitY=0.3333333333333333;exitDx=0;exitDy=0;exitPerimeter=0;entryX=1;entryY=0.5;entryDx=0;entryDy=0;fillColor=#d5e8d4;strokeColor=#82b366;" parent="1" source="Ur9Uyc6lbxFKVlAjhO0s-2" target="Ur9Uyc6lbxFKVlAjhO0s-6" edge="1">
          <mxGeometry relative="1" as="geometry">
            <Array as="points">
              <mxPoint x="540" y="340" />
              <mxPoint x="540" y="290" />
              <mxPoint x="495" y="290" />
            </Array>
          </mxGeometry>
        </mxCell>
        <mxCell id="Ur9Uyc6lbxFKVlAjhO0s-28" style="edgeStyle=orthogonalEdgeStyle;rounded=0;orthogonalLoop=1;jettySize=auto;html=1;exitX=0;exitY=0.3333333333333333;exitDx=0;exitDy=0;exitPerimeter=0;entryX=1;entryY=0.5;entryDx=0;entryDy=0;fillColor=#d5e8d4;strokeColor=#82b366;" parent="1" source="Ur9Uyc6lbxFKVlAjhO0s-2" target="Ur9Uyc6lbxFKVlAjhO0s-7" edge="1">
          <mxGeometry relative="1" as="geometry">
            <Array as="points">
              <mxPoint x="540" y="340" />
              <mxPoint x="540" y="360" />
              <mxPoint x="495" y="360" />
            </Array>
          </mxGeometry>
        </mxCell>
        <mxCell id="Ur9Uyc6lbxFKVlAjhO0s-30" style="edgeStyle=orthogonalEdgeStyle;rounded=0;orthogonalLoop=1;jettySize=auto;html=1;exitX=0;exitY=0.3333333333333333;exitDx=0;exitDy=0;exitPerimeter=0;entryX=1;entryY=0.5;entryDx=0;entryDy=0;fillColor=#d5e8d4;strokeColor=#82b366;" parent="1" source="Ur9Uyc6lbxFKVlAjhO0s-2" target="Ur9Uyc6lbxFKVlAjhO0s-15" edge="1">
          <mxGeometry relative="1" as="geometry">
            <Array as="points">
              <mxPoint x="540" y="340" />
              <mxPoint x="540" y="755" />
            </Array>
          </mxGeometry>
        </mxCell>
        <mxCell id="Ur9Uyc6lbxFKVlAjhO0s-31" style="edgeStyle=orthogonalEdgeStyle;rounded=0;orthogonalLoop=1;jettySize=auto;html=1;exitX=0;exitY=0.3333333333333333;exitDx=0;exitDy=0;exitPerimeter=0;entryX=1;entryY=0.5;entryDx=0;entryDy=0;fillColor=#d5e8d4;strokeColor=#82b366;" parent="1" source="Ur9Uyc6lbxFKVlAjhO0s-2" target="Ur9Uyc6lbxFKVlAjhO0s-13" edge="1">
          <mxGeometry relative="1" as="geometry">
            <Array as="points">
              <mxPoint x="540" y="340" />
              <mxPoint x="540" y="689" />
            </Array>
          </mxGeometry>
        </mxCell>
        <mxCell id="Ur9Uyc6lbxFKVlAjhO0s-33" style="edgeStyle=orthogonalEdgeStyle;rounded=0;orthogonalLoop=1;jettySize=auto;html=1;exitX=0;exitY=0.3333333333333333;exitDx=0;exitDy=0;exitPerimeter=0;entryX=1;entryY=0.5;entryDx=0;entryDy=0;fillColor=#d5e8d4;strokeColor=#82b366;" parent="1" source="Ur9Uyc6lbxFKVlAjhO0s-2" target="Ur9Uyc6lbxFKVlAjhO0s-21" edge="1">
          <mxGeometry relative="1" as="geometry">
            <Array as="points">
              <mxPoint x="540" y="340" />
              <mxPoint x="540" y="90" />
              <mxPoint x="495" y="90" />
            </Array>
          </mxGeometry>
        </mxCell>
        <mxCell id="Ur9Uyc6lbxFKVlAjhO0s-34" style="edgeStyle=orthogonalEdgeStyle;rounded=0;orthogonalLoop=1;jettySize=auto;html=1;exitX=0;exitY=0.3333333333333333;exitDx=0;exitDy=0;exitPerimeter=0;entryX=1;entryY=0.5;entryDx=0;entryDy=0;fillColor=#d5e8d4;strokeColor=#82b366;" parent="1" source="Ur9Uyc6lbxFKVlAjhO0s-2" target="Ur9Uyc6lbxFKVlAjhO0s-25" edge="1">
          <mxGeometry relative="1" as="geometry">
            <Array as="points">
              <mxPoint x="540" y="340" />
              <mxPoint x="540" y="30" />
              <mxPoint x="495" y="30" />
            </Array>
          </mxGeometry>
        </mxCell>
        <mxCell id="Ur9Uyc6lbxFKVlAjhO0s-35" style="edgeStyle=orthogonalEdgeStyle;rounded=0;orthogonalLoop=1;jettySize=auto;html=1;exitX=0;exitY=0.3333333333333333;exitDx=0;exitDy=0;exitPerimeter=0;entryX=1;entryY=0.5;entryDx=0;entryDy=0;fillColor=#d5e8d4;strokeColor=#82b366;" parent="1" source="Ur9Uyc6lbxFKVlAjhO0s-2" target="Ur9Uyc6lbxFKVlAjhO0s-12" edge="1">
          <mxGeometry relative="1" as="geometry">
            <Array as="points">
              <mxPoint x="540" y="340" />
              <mxPoint x="540" y="620" />
              <mxPoint x="495" y="620" />
            </Array>
          </mxGeometry>
        </mxCell>
        <mxCell id="Ur9Uyc6lbxFKVlAjhO0s-70" style="edgeStyle=orthogonalEdgeStyle;rounded=0;orthogonalLoop=1;jettySize=auto;html=1;exitX=0;exitY=0.3333333333333333;exitDx=0;exitDy=0;exitPerimeter=0;entryX=1;entryY=0.5;entryDx=0;entryDy=0;fillColor=#d5e8d4;strokeColor=#82b366;" parent="1" source="Ur9Uyc6lbxFKVlAjhO0s-2" target="Ur9Uyc6lbxFKVlAjhO0s-69" edge="1">
          <mxGeometry relative="1" as="geometry">
            <Array as="points">
              <mxPoint x="540" y="340" />
              <mxPoint x="540" y="-39" />
            </Array>
          </mxGeometry>
        </mxCell>
        <mxCell id="Ur9Uyc6lbxFKVlAjhO0s-71" style="edgeStyle=orthogonalEdgeStyle;rounded=0;orthogonalLoop=1;jettySize=auto;html=1;exitX=0;exitY=0.3333333333333333;exitDx=0;exitDy=0;exitPerimeter=0;entryX=1;entryY=0.5;entryDx=0;entryDy=0;fillColor=#d5e8d4;strokeColor=#82b366;" parent="1" source="Ur9Uyc6lbxFKVlAjhO0s-2" target="Ur9Uyc6lbxFKVlAjhO0s-68" edge="1">
          <mxGeometry relative="1" as="geometry">
            <Array as="points">
              <mxPoint x="540" y="340" />
              <mxPoint x="540" y="-105" />
            </Array>
          </mxGeometry>
        </mxCell>
        <mxCell id="Ur9Uyc6lbxFKVlAjhO0s-85" style="edgeStyle=orthogonalEdgeStyle;rounded=0;orthogonalLoop=1;jettySize=auto;html=1;exitX=0;exitY=0.3333333333333333;exitDx=0;exitDy=0;exitPerimeter=0;entryX=1;entryY=0.5;entryDx=0;entryDy=0;fillColor=#d5e8d4;strokeColor=#82b366;" parent="1" source="Ur9Uyc6lbxFKVlAjhO0s-2" target="Ur9Uyc6lbxFKVlAjhO0s-84" edge="1">
          <mxGeometry relative="1" as="geometry">
            <Array as="points">
              <mxPoint x="540" y="340" />
              <mxPoint x="540" y="-165" />
            </Array>
          </mxGeometry>
        </mxCell>
        <mxCell id="Ur9Uyc6lbxFKVlAjhO0s-2" value="회원" style="shape=umlActor;verticalLabelPosition=bottom;verticalAlign=top;html=1;outlineConnect=0;fillColor=#d5e8d4;strokeColor=#82b366;" parent="1" vertex="1">
          <mxGeometry x="750" y="320" width="30" height="60" as="geometry" />
        </mxCell>
        <mxCell id="Ur9Uyc6lbxFKVlAjhO0s-42" style="edgeStyle=orthogonalEdgeStyle;rounded=0;orthogonalLoop=1;jettySize=auto;html=1;exitX=1;exitY=0.3333333333333333;exitDx=0;exitDy=0;exitPerimeter=0;entryX=0;entryY=0.5;entryDx=0;entryDy=0;fillColor=#f8cecc;strokeColor=#b85450;" parent="1" source="Ur9Uyc6lbxFKVlAjhO0s-3" target="Ur9Uyc6lbxFKVlAjhO0s-15" edge="1">
          <mxGeometry relative="1" as="geometry">
            <Array as="points">
              <mxPoint x="310" y="470" />
              <mxPoint x="310" y="755" />
            </Array>
          </mxGeometry>
        </mxCell>
        <mxCell id="Ur9Uyc6lbxFKVlAjhO0s-44" style="edgeStyle=orthogonalEdgeStyle;rounded=0;orthogonalLoop=1;jettySize=auto;html=1;exitX=1;exitY=0.3333333333333333;exitDx=0;exitDy=0;exitPerimeter=0;entryX=0;entryY=0.5;entryDx=0;entryDy=0;fillColor=#f8cecc;strokeColor=#b85450;" parent="1" source="Ur9Uyc6lbxFKVlAjhO0s-3" target="Ur9Uyc6lbxFKVlAjhO0s-22" edge="1">
          <mxGeometry relative="1" as="geometry">
            <Array as="points">
              <mxPoint x="310" y="470" />
              <mxPoint x="310" y="955" />
            </Array>
          </mxGeometry>
        </mxCell>
        <mxCell id="Ur9Uyc6lbxFKVlAjhO0s-45" style="edgeStyle=orthogonalEdgeStyle;rounded=0;orthogonalLoop=1;jettySize=auto;html=1;exitX=1;exitY=0.3333333333333333;exitDx=0;exitDy=0;exitPerimeter=0;entryX=0;entryY=0.5;entryDx=0;entryDy=0;fillColor=#f8cecc;strokeColor=#b85450;" parent="1" source="Ur9Uyc6lbxFKVlAjhO0s-3" target="Ur9Uyc6lbxFKVlAjhO0s-11" edge="1">
          <mxGeometry relative="1" as="geometry">
            <Array as="points">
              <mxPoint x="310" y="470" />
              <mxPoint x="310" y="550" />
              <mxPoint x="375" y="550" />
            </Array>
          </mxGeometry>
        </mxCell>
        <mxCell id="Ur9Uyc6lbxFKVlAjhO0s-46" style="edgeStyle=orthogonalEdgeStyle;rounded=0;orthogonalLoop=1;jettySize=auto;html=1;exitX=1;exitY=0.3333333333333333;exitDx=0;exitDy=0;exitPerimeter=0;entryX=0;entryY=0.5;entryDx=0;entryDy=0;fillColor=#f8cecc;strokeColor=#b85450;" parent="1" source="Ur9Uyc6lbxFKVlAjhO0s-3" target="Ur9Uyc6lbxFKVlAjhO0s-6" edge="1">
          <mxGeometry relative="1" as="geometry">
            <Array as="points">
              <mxPoint x="310" y="470" />
              <mxPoint x="310" y="290" />
              <mxPoint x="375" y="290" />
            </Array>
          </mxGeometry>
        </mxCell>
        <mxCell id="Ur9Uyc6lbxFKVlAjhO0s-47" style="edgeStyle=orthogonalEdgeStyle;rounded=0;orthogonalLoop=1;jettySize=auto;html=1;exitX=1;exitY=0.3333333333333333;exitDx=0;exitDy=0;exitPerimeter=0;entryX=0;entryY=0.5;entryDx=0;entryDy=0;fillColor=#f8cecc;strokeColor=#b85450;" parent="1" source="Ur9Uyc6lbxFKVlAjhO0s-3" target="Ur9Uyc6lbxFKVlAjhO0s-13" edge="1">
          <mxGeometry relative="1" as="geometry">
            <Array as="points">
              <mxPoint x="310" y="470" />
              <mxPoint x="310" y="690" />
            </Array>
          </mxGeometry>
        </mxCell>
        <mxCell id="Ur9Uyc6lbxFKVlAjhO0s-51" style="edgeStyle=orthogonalEdgeStyle;rounded=0;orthogonalLoop=1;jettySize=auto;html=1;exitX=1;exitY=0.3333333333333333;exitDx=0;exitDy=0;exitPerimeter=0;entryX=0;entryY=0.5;entryDx=0;entryDy=0;fillColor=#f8cecc;strokeColor=#b85450;" parent="1" source="Ur9Uyc6lbxFKVlAjhO0s-3" target="Ur9Uyc6lbxFKVlAjhO0s-21" edge="1">
          <mxGeometry relative="1" as="geometry">
            <Array as="points">
              <mxPoint x="310" y="470" />
              <mxPoint x="310" y="130" />
              <mxPoint x="375" y="130" />
            </Array>
          </mxGeometry>
        </mxCell>
        <mxCell id="Ur9Uyc6lbxFKVlAjhO0s-52" style="edgeStyle=orthogonalEdgeStyle;rounded=0;orthogonalLoop=1;jettySize=auto;html=1;exitX=1;exitY=0.3333333333333333;exitDx=0;exitDy=0;exitPerimeter=0;entryX=0;entryY=0.5;entryDx=0;entryDy=0;fillColor=#f8cecc;strokeColor=#b85450;" parent="1" source="Ur9Uyc6lbxFKVlAjhO0s-3" target="Ur9Uyc6lbxFKVlAjhO0s-25" edge="1">
          <mxGeometry relative="1" as="geometry">
            <Array as="points">
              <mxPoint x="310" y="470" />
              <mxPoint x="310" y="20" />
              <mxPoint x="375" y="20" />
            </Array>
          </mxGeometry>
        </mxCell>
        <mxCell id="Ur9Uyc6lbxFKVlAjhO0s-53" style="edgeStyle=orthogonalEdgeStyle;rounded=0;orthogonalLoop=1;jettySize=auto;html=1;exitX=1;exitY=0.3333333333333333;exitDx=0;exitDy=0;exitPerimeter=0;entryX=0;entryY=0.5;entryDx=0;entryDy=0;fillColor=#f8cecc;strokeColor=#b85450;" parent="1" source="Ur9Uyc6lbxFKVlAjhO0s-3" target="Ur9Uyc6lbxFKVlAjhO0s-7" edge="1">
          <mxGeometry relative="1" as="geometry">
            <Array as="points">
              <mxPoint x="310" y="470" />
              <mxPoint x="310" y="350" />
              <mxPoint x="375" y="350" />
            </Array>
          </mxGeometry>
        </mxCell>
        <mxCell id="Ur9Uyc6lbxFKVlAjhO0s-54" style="edgeStyle=orthogonalEdgeStyle;rounded=0;orthogonalLoop=1;jettySize=auto;html=1;exitX=1;exitY=0.3333333333333333;exitDx=0;exitDy=0;exitPerimeter=0;entryX=0;entryY=0.5;entryDx=0;entryDy=0;fillColor=#f8cecc;strokeColor=#b85450;" parent="1" source="Ur9Uyc6lbxFKVlAjhO0s-3" target="Ur9Uyc6lbxFKVlAjhO0s-12" edge="1">
          <mxGeometry relative="1" as="geometry">
            <Array as="points">
              <mxPoint x="310" y="470" />
              <mxPoint x="310" y="623" />
            </Array>
          </mxGeometry>
        </mxCell>
        <mxCell id="Ur9Uyc6lbxFKVlAjhO0s-86" style="edgeStyle=orthogonalEdgeStyle;rounded=0;orthogonalLoop=1;jettySize=auto;html=1;exitX=1;exitY=0.3333333333333333;exitDx=0;exitDy=0;exitPerimeter=0;entryX=0;entryY=0.5;entryDx=0;entryDy=0;fillColor=#f8cecc;strokeColor=#b85450;" parent="1" source="Ur9Uyc6lbxFKVlAjhO0s-3" target="Ur9Uyc6lbxFKVlAjhO0s-84" edge="1">
          <mxGeometry relative="1" as="geometry">
            <Array as="points">
              <mxPoint x="310" y="470" />
              <mxPoint x="310" y="-165" />
            </Array>
          </mxGeometry>
        </mxCell>
        <mxCell id="vj-Lq734yOhigtF9EQcv-1" style="edgeStyle=orthogonalEdgeStyle;rounded=0;orthogonalLoop=1;jettySize=auto;html=1;exitX=1;exitY=0.3333333333333333;exitDx=0;exitDy=0;exitPerimeter=0;entryX=0;entryY=0.5;entryDx=0;entryDy=0;fillColor=#f8cecc;strokeColor=#b85450;" parent="1" source="Ur9Uyc6lbxFKVlAjhO0s-3" target="Ur9Uyc6lbxFKVlAjhO0s-69" edge="1">
          <mxGeometry relative="1" as="geometry">
            <Array as="points">
              <mxPoint x="310" y="470" />
              <mxPoint x="310" y="-35" />
            </Array>
          </mxGeometry>
        </mxCell>
        <mxCell id="vj-Lq734yOhigtF9EQcv-2" style="edgeStyle=orthogonalEdgeStyle;rounded=0;orthogonalLoop=1;jettySize=auto;html=1;exitX=1;exitY=0.3333333333333333;exitDx=0;exitDy=0;exitPerimeter=0;entryX=0;entryY=0.5;entryDx=0;entryDy=0;fillColor=#f8cecc;strokeColor=#b85450;" parent="1" source="Ur9Uyc6lbxFKVlAjhO0s-3" target="Ur9Uyc6lbxFKVlAjhO0s-68" edge="1">
          <mxGeometry relative="1" as="geometry">
            <Array as="points">
              <mxPoint x="310" y="470" />
              <mxPoint x="310" y="-105" />
            </Array>
          </mxGeometry>
        </mxCell>
        <mxCell id="Ur9Uyc6lbxFKVlAjhO0s-3" value="관리자" style="shape=umlActor;verticalLabelPosition=bottom;verticalAlign=top;html=1;outlineConnect=0;fillColor=#f8cecc;strokeColor=#b85450;" parent="1" vertex="1">
          <mxGeometry x="50" y="450" width="30" height="60" as="geometry" />
        </mxCell>
        <mxCell id="Ur9Uyc6lbxFKVlAjhO0s-4" value="회원 가입" style="ellipse;whiteSpace=wrap;html=1;" parent="1" vertex="1">
          <mxGeometry x="375" y="201" width="120" height="50" as="geometry" />
        </mxCell>
        <mxCell id="Ur9Uyc6lbxFKVlAjhO0s-5" value="로그인" style="ellipse;whiteSpace=wrap;html=1;" parent="1" vertex="1">
          <mxGeometry x="375" y="135" width="120" height="50" as="geometry" />
        </mxCell>
        <mxCell id="Ur9Uyc6lbxFKVlAjhO0s-6" value="로그아웃" style="ellipse;whiteSpace=wrap;html=1;" parent="1" vertex="1">
          <mxGeometry x="375" y="267" width="120" height="50" as="geometry" />
        </mxCell>
        <mxCell id="Ur9Uyc6lbxFKVlAjhO0s-7" value="회원 상세정보 보기" style="ellipse;whiteSpace=wrap;html=1;" parent="1" vertex="1">
          <mxGeometry x="375" y="333" width="120" height="50" as="geometry" />
        </mxCell>
        <mxCell id="Ur9Uyc6lbxFKVlAjhO0s-8" value="아이디 찾기" style="ellipse;whiteSpace=wrap;html=1;" parent="1" vertex="1">
          <mxGeometry x="375" y="399" width="120" height="50" as="geometry" />
        </mxCell>
        <mxCell id="Ur9Uyc6lbxFKVlAjhO0s-9" value="비밀번호 찾기" style="ellipse;whiteSpace=wrap;html=1;" parent="1" vertex="1">
          <mxGeometry x="375" y="465" width="120" height="50" as="geometry" />
        </mxCell>
        <mxCell id="Ur9Uyc6lbxFKVlAjhO0s-11" value="회원 목록/검색" style="ellipse;whiteSpace=wrap;html=1;" parent="1" vertex="1">
          <mxGeometry x="375" y="532" width="120" height="50" as="geometry" />
        </mxCell>
        <mxCell id="Ur9Uyc6lbxFKVlAjhO0s-12" value="회원 탈퇴" style="ellipse;whiteSpace=wrap;html=1;" parent="1" vertex="1">
          <mxGeometry x="375" y="598" width="120" height="50" as="geometry" />
        </mxCell>
        <mxCell id="Ur9Uyc6lbxFKVlAjhO0s-13" value="회원 정보 변경" style="ellipse;whiteSpace=wrap;html=1;" parent="1" vertex="1">
          <mxGeometry x="375" y="664" width="120" height="50" as="geometry" />
        </mxCell>
        <mxCell id="Ur9Uyc6lbxFKVlAjhO0s-14" value="리뷰 열람" style="ellipse;whiteSpace=wrap;html=1;" parent="1" vertex="1">
          <mxGeometry x="610" y="750" width="120" height="50" as="geometry" />
        </mxCell>
        <mxCell id="Ur9Uyc6lbxFKVlAjhO0s-15" value="리뷰 관리" style="ellipse;whiteSpace=wrap;html=1;" parent="1" vertex="1">
          <mxGeometry x="375" y="730" width="120" height="50" as="geometry" />
        </mxCell>
        <mxCell id="Ur9Uyc6lbxFKVlAjhO0s-17" value="리뷰 삭제" style="ellipse;whiteSpace=wrap;html=1;" parent="1" vertex="1">
          <mxGeometry x="610" y="816" width="120" height="50" as="geometry" />
        </mxCell>
        <mxCell id="Ur9Uyc6lbxFKVlAjhO0s-18" value="컨텐츠 작성" style="ellipse;whiteSpace=wrap;html=1;" parent="1" vertex="1">
          <mxGeometry x="610" y="899" width="120" height="50" as="geometry" />
        </mxCell>
        <mxCell id="Ur9Uyc6lbxFKVlAjhO0s-19" value="컨텐츠 수정" style="ellipse;whiteSpace=wrap;html=1;" parent="1" vertex="1">
          <mxGeometry x="610" y="961" width="120" height="50" as="geometry" />
        </mxCell>
        <mxCell id="Ur9Uyc6lbxFKVlAjhO0s-20" value="리뷰 작성" style="ellipse;whiteSpace=wrap;html=1;" parent="1" vertex="1">
          <mxGeometry x="610" y="630" width="120" height="50" as="geometry" />
        </mxCell>
        <mxCell id="Ur9Uyc6lbxFKVlAjhO0s-21" value="컨텐츠 열람&lt;br&gt;(가격비교)" style="ellipse;whiteSpace=wrap;html=1;" parent="1" vertex="1">
          <mxGeometry x="375" y="68" width="120" height="50" as="geometry" />
        </mxCell>
        <mxCell id="Ur9Uyc6lbxFKVlAjhO0s-22" value="컨텐츠 관리" style="ellipse;whiteSpace=wrap;html=1;" parent="1" vertex="1">
          <mxGeometry x="375" y="930" width="120" height="50" as="geometry" />
        </mxCell>
        <mxCell id="Ur9Uyc6lbxFKVlAjhO0s-88" style="edgeStyle=orthogonalEdgeStyle;rounded=0;orthogonalLoop=1;jettySize=auto;html=1;exitX=1;exitY=1;exitDx=0;exitDy=0;entryX=0;entryY=0.5;entryDx=0;entryDy=0;" parent="1" source="Ur9Uyc6lbxFKVlAjhO0s-25" target="Ur9Uyc6lbxFKVlAjhO0s-87" edge="1">
          <mxGeometry relative="1" as="geometry">
            <Array as="points">
              <mxPoint x="580" y="53" />
            </Array>
          </mxGeometry>
        </mxCell>
        <mxCell id="Ur9Uyc6lbxFKVlAjhO0s-25" value="검색" style="ellipse;whiteSpace=wrap;html=1;" parent="1" vertex="1">
          <mxGeometry x="375" y="10" width="120" height="50" as="geometry" />
        </mxCell>
        <mxCell id="Ur9Uyc6lbxFKVlAjhO0s-57" value="리뷰 수정" style="ellipse;whiteSpace=wrap;html=1;" parent="1" vertex="1">
          <mxGeometry x="610" y="692" width="120" height="50" as="geometry" />
        </mxCell>
        <mxCell id="Ur9Uyc6lbxFKVlAjhO0s-68" value="좋아요&lt;br&gt;(관심,평점)" style="ellipse;whiteSpace=wrap;html=1;" parent="1" vertex="1">
          <mxGeometry x="375" y="-130" width="120" height="50" as="geometry" />
        </mxCell>
        <mxCell id="Ur9Uyc6lbxFKVlAjhO0s-69" value="선호장르" style="ellipse;whiteSpace=wrap;html=1;" parent="1" vertex="1">
          <mxGeometry x="375" y="-60" width="120" height="50" as="geometry" />
        </mxCell>
        <mxCell id="Ur9Uyc6lbxFKVlAjhO0s-75" value="" style="endArrow=classic;html=1;rounded=0;exitX=1;exitY=0.5;exitDx=0;exitDy=0;entryX=0;entryY=0.5;entryDx=0;entryDy=0;" parent="1" source="Ur9Uyc6lbxFKVlAjhO0s-15" target="Ur9Uyc6lbxFKVlAjhO0s-20" edge="1">
          <mxGeometry width="50" height="50" relative="1" as="geometry">
            <mxPoint x="510" y="816" as="sourcePoint" />
            <mxPoint x="560" y="766" as="targetPoint" />
          </mxGeometry>
        </mxCell>
        <mxCell id="Ur9Uyc6lbxFKVlAjhO0s-76" value="" style="endArrow=classic;html=1;rounded=0;exitX=1;exitY=0.5;exitDx=0;exitDy=0;entryX=0;entryY=0.5;entryDx=0;entryDy=0;" parent="1" source="Ur9Uyc6lbxFKVlAjhO0s-15" target="Ur9Uyc6lbxFKVlAjhO0s-57" edge="1">
          <mxGeometry width="50" height="50" relative="1" as="geometry">
            <mxPoint x="505" y="765" as="sourcePoint" />
            <mxPoint x="580" y="665" as="targetPoint" />
          </mxGeometry>
        </mxCell>
        <mxCell id="Ur9Uyc6lbxFKVlAjhO0s-77" value="" style="endArrow=classic;html=1;rounded=0;entryX=0;entryY=0.5;entryDx=0;entryDy=0;exitX=1;exitY=0.5;exitDx=0;exitDy=0;" parent="1" source="Ur9Uyc6lbxFKVlAjhO0s-15" target="Ur9Uyc6lbxFKVlAjhO0s-14" edge="1">
          <mxGeometry width="50" height="50" relative="1" as="geometry">
            <mxPoint x="500" y="750" as="sourcePoint" />
            <mxPoint x="590" y="675" as="targetPoint" />
          </mxGeometry>
        </mxCell>
        <mxCell id="Ur9Uyc6lbxFKVlAjhO0s-78" value="" style="endArrow=classic;html=1;rounded=0;entryX=0;entryY=0.5;entryDx=0;entryDy=0;exitX=1;exitY=0.5;exitDx=0;exitDy=0;" parent="1" source="Ur9Uyc6lbxFKVlAjhO0s-15" target="Ur9Uyc6lbxFKVlAjhO0s-17" edge="1">
          <mxGeometry width="50" height="50" relative="1" as="geometry">
            <mxPoint x="500" y="750" as="sourcePoint" />
            <mxPoint x="600" y="685" as="targetPoint" />
          </mxGeometry>
        </mxCell>
        <mxCell id="Ur9Uyc6lbxFKVlAjhO0s-79" value="" style="endArrow=classic;html=1;rounded=0;entryX=0;entryY=0.5;entryDx=0;entryDy=0;exitX=1;exitY=0.5;exitDx=0;exitDy=0;" parent="1" source="Ur9Uyc6lbxFKVlAjhO0s-22" target="Ur9Uyc6lbxFKVlAjhO0s-19" edge="1">
          <mxGeometry width="50" height="50" relative="1" as="geometry">
            <mxPoint x="490" y="980" as="sourcePoint" />
            <mxPoint x="565" y="1004" as="targetPoint" />
          </mxGeometry>
        </mxCell>
        <mxCell id="Ur9Uyc6lbxFKVlAjhO0s-80" value="" style="endArrow=classic;html=1;rounded=0;entryX=0;entryY=0.5;entryDx=0;entryDy=0;exitX=1;exitY=0.5;exitDx=0;exitDy=0;" parent="1" source="Ur9Uyc6lbxFKVlAjhO0s-22" target="Ur9Uyc6lbxFKVlAjhO0s-18" edge="1">
          <mxGeometry width="50" height="50" relative="1" as="geometry">
            <mxPoint x="480" y="875" as="sourcePoint" />
            <mxPoint x="555" y="899" as="targetPoint" />
          </mxGeometry>
        </mxCell>
        <mxCell id="Ur9Uyc6lbxFKVlAjhO0s-84" value="오류제보" style="ellipse;whiteSpace=wrap;html=1;" parent="1" vertex="1">
          <mxGeometry x="375" y="-190" width="120" height="50" as="geometry" />
        </mxCell>
        <mxCell id="Ur9Uyc6lbxFKVlAjhO0s-87" value="정렬" style="ellipse;whiteSpace=wrap;html=1;" parent="1" vertex="1">
          <mxGeometry x="610" y="-10" width="120" height="50" as="geometry" />
        </mxCell>
        <mxCell id="t65GG9oc5vfODjaYZF34-1" value="메인페이지" style="rounded=1;whiteSpace=wrap;html=1;fillColor=#ffe6cc;strokeColor=#d79b00;" parent="1" vertex="1">
          <mxGeometry x="3260" y="-30" width="120" height="60" as="geometry" />
        </mxCell>
        <mxCell id="t65GG9oc5vfODjaYZF34-3" value="" style="edgeStyle=orthogonalEdgeStyle;rounded=0;orthogonalLoop=1;jettySize=auto;html=1;" parent="1" source="t65GG9oc5vfODjaYZF34-2" target="t65GG9oc5vfODjaYZF34-1" edge="1">
          <mxGeometry relative="1" as="geometry" />
        </mxCell>
        <mxCell id="t65GG9oc5vfODjaYZF34-5" value="" style="edgeStyle=orthogonalEdgeStyle;rounded=0;orthogonalLoop=1;jettySize=auto;html=1;" parent="1" source="t65GG9oc5vfODjaYZF34-2" target="t65GG9oc5vfODjaYZF34-1" edge="1">
          <mxGeometry relative="1" as="geometry" />
        </mxCell>
        <mxCell id="t65GG9oc5vfODjaYZF34-6" value="" style="edgeStyle=orthogonalEdgeStyle;rounded=0;orthogonalLoop=1;jettySize=auto;html=1;" parent="1" source="t65GG9oc5vfODjaYZF34-2" target="t65GG9oc5vfODjaYZF34-1" edge="1">
          <mxGeometry relative="1" as="geometry" />
        </mxCell>
        <mxCell id="t65GG9oc5vfODjaYZF34-2" value="접속자" style="shape=umlActor;verticalLabelPosition=bottom;verticalAlign=top;html=1;outlineConnect=0;" parent="1" vertex="1">
          <mxGeometry x="3305" y="-170" width="30" height="60" as="geometry" />
        </mxCell>
        <mxCell id="t65GG9oc5vfODjaYZF34-8" value="client" style="text;html=1;strokeColor=none;fillColor=none;align=center;verticalAlign=middle;whiteSpace=wrap;rounded=0;" parent="1" vertex="1">
          <mxGeometry x="2220" y="-390" width="60" height="30" as="geometry" />
        </mxCell>
        <mxCell id="t65GG9oc5vfODjaYZF34-9" value="" style="rounded=0;whiteSpace=wrap;html=1;fillColor=#f5f5f5;fontColor=#333333;strokeColor=#666666;" parent="1" vertex="1">
          <mxGeometry x="2720" y="-1300" width="930" height="550" as="geometry" />
        </mxCell>
        <mxCell id="t65GG9oc5vfODjaYZF34-10" value="관리자" style="text;html=1;strokeColor=none;fillColor=none;align=center;verticalAlign=middle;whiteSpace=wrap;rounded=0;" parent="1" vertex="1">
          <mxGeometry x="2740" y="-1281" width="60" height="30" as="geometry" />
        </mxCell>
        <mxCell id="t65GG9oc5vfODjaYZF34-14" value="ID&lt;br&gt;PW&lt;br&gt;닉네임&lt;br&gt;성별&lt;br&gt;생년월일&lt;br&gt;이메일" style="edgeStyle=orthogonalEdgeStyle;rounded=0;orthogonalLoop=1;jettySize=auto;html=1;exitX=1;exitY=0.5;exitDx=0;exitDy=0;" parent="1" source="t65GG9oc5vfODjaYZF34-12" target="t65GG9oc5vfODjaYZF34-13" edge="1">
          <mxGeometry x="-0.2" relative="1" as="geometry">
            <mxPoint as="offset" />
          </mxGeometry>
        </mxCell>
        <mxCell id="t65GG9oc5vfODjaYZF34-12" value="회원가입" style="rounded=1;whiteSpace=wrap;html=1;fillColor=#dae8fc;strokeColor=#6c8ebf;" parent="1" vertex="1">
          <mxGeometry x="3630" y="-340" width="120" height="60" as="geometry" />
        </mxCell>
        <mxCell id="t65GG9oc5vfODjaYZF34-19" style="edgeStyle=orthogonalEdgeStyle;rounded=0;orthogonalLoop=1;jettySize=auto;html=1;exitX=1;exitY=0.5;exitDx=0;exitDy=0;entryX=0;entryY=0.5;entryDx=0;entryDy=0;" parent="1" source="t65GG9oc5vfODjaYZF34-13" target="t65GG9oc5vfODjaYZF34-15" edge="1">
          <mxGeometry relative="1" as="geometry" />
        </mxCell>
        <mxCell id="t65GG9oc5vfODjaYZF34-13" value="회원가입(처리)" style="rounded=1;whiteSpace=wrap;html=1;fillColor=#f8cecc;strokeColor=#b85450;" parent="1" vertex="1">
          <mxGeometry x="3900" y="-340" width="120" height="60" as="geometry" />
        </mxCell>
        <mxCell id="WBOo7a8dxVO5zlxq-I5M-18" style="edgeStyle=orthogonalEdgeStyle;rounded=0;orthogonalLoop=1;jettySize=auto;html=1;exitX=1;exitY=0.25;exitDx=0;exitDy=0;entryX=0;entryY=0.25;entryDx=0;entryDy=0;fillColor=#dae8fc;strokeColor=#6c8ebf;" edge="1" parent="1" source="t65GG9oc5vfODjaYZF34-15" target="WBOo7a8dxVO5zlxq-I5M-17">
          <mxGeometry relative="1" as="geometry" />
        </mxCell>
        <mxCell id="WBOo7a8dxVO5zlxq-I5M-19" value="건너띄기" style="edgeStyle=orthogonalEdgeStyle;rounded=0;orthogonalLoop=1;jettySize=auto;html=1;exitX=1;exitY=0.75;exitDx=0;exitDy=0;entryX=0;entryY=0.75;entryDx=0;entryDy=0;fillColor=#f8cecc;strokeColor=#b85450;" edge="1" parent="1" source="t65GG9oc5vfODjaYZF34-15" target="WBOo7a8dxVO5zlxq-I5M-17">
          <mxGeometry relative="1" as="geometry" />
        </mxCell>
        <mxCell id="t65GG9oc5vfODjaYZF34-15" value="가입한 OTT 선택&lt;br&gt;&amp;nbsp;페이지" style="rounded=1;whiteSpace=wrap;html=1;fillColor=#dae8fc;strokeColor=#6c8ebf;" parent="1" vertex="1">
          <mxGeometry x="4100" y="-340" width="130" height="60" as="geometry" />
        </mxCell>
        <mxCell id="WBOo7a8dxVO5zlxq-I5M-2" style="edgeStyle=orthogonalEdgeStyle;rounded=0;orthogonalLoop=1;jettySize=auto;html=1;exitX=0.5;exitY=1;exitDx=0;exitDy=0;entryX=0;entryY=0.5;entryDx=0;entryDy=0;" edge="1" parent="1" source="6nEjadPt3HJGxFAMw-uQ-3" target="6nEjadPt3HJGxFAMw-uQ-4">
          <mxGeometry relative="1" as="geometry" />
        </mxCell>
        <mxCell id="WBOo7a8dxVO5zlxq-I5M-3" style="edgeStyle=orthogonalEdgeStyle;rounded=0;orthogonalLoop=1;jettySize=auto;html=1;exitX=0.5;exitY=1;exitDx=0;exitDy=0;entryX=0;entryY=0.5;entryDx=0;entryDy=0;" edge="1" parent="1" source="6nEjadPt3HJGxFAMw-uQ-3" target="6nEjadPt3HJGxFAMw-uQ-5">
          <mxGeometry relative="1" as="geometry" />
        </mxCell>
        <mxCell id="WBOo7a8dxVO5zlxq-I5M-4" style="edgeStyle=orthogonalEdgeStyle;rounded=0;orthogonalLoop=1;jettySize=auto;html=1;exitX=0.5;exitY=1;exitDx=0;exitDy=0;entryX=0;entryY=0.5;entryDx=0;entryDy=0;" edge="1" parent="1" source="6nEjadPt3HJGxFAMw-uQ-3" target="6nEjadPt3HJGxFAMw-uQ-7">
          <mxGeometry relative="1" as="geometry" />
        </mxCell>
        <mxCell id="WBOo7a8dxVO5zlxq-I5M-5" style="edgeStyle=orthogonalEdgeStyle;rounded=0;orthogonalLoop=1;jettySize=auto;html=1;exitX=0.5;exitY=1;exitDx=0;exitDy=0;entryX=0;entryY=0.5;entryDx=0;entryDy=0;" edge="1" parent="1" source="6nEjadPt3HJGxFAMw-uQ-3" target="WBOo7a8dxVO5zlxq-I5M-1">
          <mxGeometry relative="1" as="geometry" />
        </mxCell>
        <mxCell id="6nEjadPt3HJGxFAMw-uQ-3" value="내 정보" style="rounded=1;whiteSpace=wrap;html=1;fillColor=#dae8fc;strokeColor=#6c8ebf;" parent="1" vertex="1">
          <mxGeometry x="2240" y="-330" width="120" height="60" as="geometry" />
        </mxCell>
        <mxCell id="WBOo7a8dxVO5zlxq-I5M-28" style="edgeStyle=orthogonalEdgeStyle;rounded=0;orthogonalLoop=1;jettySize=auto;html=1;exitX=1;exitY=0.5;exitDx=0;exitDy=0;entryX=0;entryY=0.5;entryDx=0;entryDy=0;" edge="1" parent="1" source="6nEjadPt3HJGxFAMw-uQ-4" target="6nEjadPt3HJGxFAMw-uQ-6">
          <mxGeometry relative="1" as="geometry" />
        </mxCell>
        <mxCell id="6nEjadPt3HJGxFAMw-uQ-4" value="회원정보변경" style="rounded=1;whiteSpace=wrap;html=1;fillColor=#dae8fc;strokeColor=#6c8ebf;" parent="1" vertex="1">
          <mxGeometry x="2400" y="-220" width="120" height="60" as="geometry" />
        </mxCell>
        <mxCell id="6nEjadPt3HJGxFAMw-uQ-5" value="나의 리뷰 관리" style="rounded=1;whiteSpace=wrap;html=1;fillColor=#dae8fc;strokeColor=#6c8ebf;" parent="1" vertex="1">
          <mxGeometry x="2400" y="-100" width="120" height="60" as="geometry" />
        </mxCell>
        <mxCell id="6nEjadPt3HJGxFAMw-uQ-6" value="회원정보변경(처리)" style="rounded=1;whiteSpace=wrap;html=1;fillColor=#f8cecc;strokeColor=#b85450;" parent="1" vertex="1">
          <mxGeometry x="2610" y="-220" width="120" height="60" as="geometry" />
        </mxCell>
        <mxCell id="WBOo7a8dxVO5zlxq-I5M-7" style="edgeStyle=orthogonalEdgeStyle;rounded=0;orthogonalLoop=1;jettySize=auto;html=1;exitX=1;exitY=0.5;exitDx=0;exitDy=0;" edge="1" parent="1" source="6nEjadPt3HJGxFAMw-uQ-7" target="WBOo7a8dxVO5zlxq-I5M-6">
          <mxGeometry relative="1" as="geometry" />
        </mxCell>
        <mxCell id="6nEjadPt3HJGxFAMw-uQ-7" value="회원탈퇴" style="rounded=1;whiteSpace=wrap;html=1;fillColor=#dae8fc;strokeColor=#6c8ebf;" parent="1" vertex="1">
          <mxGeometry x="2400" y="10" width="120" height="60" as="geometry" />
        </mxCell>
        <mxCell id="WBOo7a8dxVO5zlxq-I5M-29" style="edgeStyle=orthogonalEdgeStyle;rounded=0;orthogonalLoop=1;jettySize=auto;html=1;exitX=1;exitY=0.5;exitDx=0;exitDy=0;entryX=0;entryY=0.5;entryDx=0;entryDy=0;" edge="1" parent="1" source="WBOo7a8dxVO5zlxq-I5M-1" target="WBOo7a8dxVO5zlxq-I5M-9">
          <mxGeometry relative="1" as="geometry" />
        </mxCell>
        <mxCell id="WBOo7a8dxVO5zlxq-I5M-1" value="오류제보" style="rounded=1;whiteSpace=wrap;html=1;fillColor=#dae8fc;strokeColor=#6c8ebf;" vertex="1" parent="1">
          <mxGeometry x="2400" y="150" width="120" height="60" as="geometry" />
        </mxCell>
        <mxCell id="WBOo7a8dxVO5zlxq-I5M-6" value="회원탈퇴(처리)" style="rounded=1;whiteSpace=wrap;html=1;fillColor=#f8cecc;strokeColor=#b85450;" vertex="1" parent="1">
          <mxGeometry x="2620" y="10" width="120" height="60" as="geometry" />
        </mxCell>
        <mxCell id="WBOo7a8dxVO5zlxq-I5M-9" value="오류등록" style="rounded=1;whiteSpace=wrap;html=1;fillColor=#f8cecc;strokeColor=#b85450;" vertex="1" parent="1">
          <mxGeometry x="2610" y="150" width="120" height="60" as="geometry" />
        </mxCell>
        <mxCell id="WBOo7a8dxVO5zlxq-I5M-10" value="메인페이지" style="text;html=1;strokeColor=none;fillColor=none;align=center;verticalAlign=middle;whiteSpace=wrap;rounded=0;" vertex="1" parent="1">
          <mxGeometry x="3570" y="-400" width="100" height="30" as="geometry" />
        </mxCell>
        <mxCell id="WBOo7a8dxVO5zlxq-I5M-24" value="이메일&lt;br&gt;생년월일&lt;br&gt;휴대폰번호&lt;br&gt;" style="edgeStyle=orthogonalEdgeStyle;rounded=0;orthogonalLoop=1;jettySize=auto;html=1;exitX=1;exitY=0.5;exitDx=0;exitDy=0;" edge="1" parent="1" source="WBOo7a8dxVO5zlxq-I5M-11" target="WBOo7a8dxVO5zlxq-I5M-13">
          <mxGeometry relative="1" as="geometry" />
        </mxCell>
        <mxCell id="WBOo7a8dxVO5zlxq-I5M-11" value="아이디 찾기" style="rounded=1;whiteSpace=wrap;html=1;fillColor=#dae8fc;strokeColor=#6c8ebf;" vertex="1" parent="1">
          <mxGeometry x="3670" y="-160" width="120" height="60" as="geometry" />
        </mxCell>
        <mxCell id="WBOo7a8dxVO5zlxq-I5M-23" value="아이디&lt;br&gt;이메일&lt;br&gt;생년월일&lt;br&gt;휴대폰 번호" style="edgeStyle=orthogonalEdgeStyle;rounded=0;orthogonalLoop=1;jettySize=auto;html=1;exitX=1;exitY=0.5;exitDx=0;exitDy=0;" edge="1" parent="1" source="WBOo7a8dxVO5zlxq-I5M-12" target="WBOo7a8dxVO5zlxq-I5M-14">
          <mxGeometry relative="1" as="geometry" />
        </mxCell>
        <mxCell id="WBOo7a8dxVO5zlxq-I5M-12" value="비밀번호 찾기" style="rounded=1;whiteSpace=wrap;html=1;fillColor=#dae8fc;strokeColor=#6c8ebf;" vertex="1" parent="1">
          <mxGeometry x="3670" y="-60" width="120" height="60" as="geometry" />
        </mxCell>
        <mxCell id="WBOo7a8dxVO5zlxq-I5M-13" value="아이디 찾기(처리)&lt;span style=&quot;color: rgba(0 , 0 , 0 , 0) ; font-family: monospace ; font-size: 0px&quot;&gt;%3CmxGraphModel%3E%3Croot%3E%3CmxCell%20id%3D%220%22%2F%3E%3CmxCell%20id%3D%221%22%20parent%3D%220%22%2F%3E%3CmxCell%20id%3D%222%22%20value%3D%22%EC%95%84%EC%9D%B4%EB%94%94%20%EC%B0%BE%EA%B8%B0%22%20style%3D%22rounded%3D1%3BwhiteSpace%3Dwrap%3Bhtml%3D1%3BfillColor%3D%23dae8fc%3BstrokeColor%3D%236c8ebf%3B%22%20vertex%3D%221%22%20parent%3D%221%22%3E%3CmxGeometry%20x%3D%223630%22%20y%3D%22-170%22%20width%3D%22120%22%20height%3D%2260%22%20as%3D%22geometry%22%2F%3E%3C%2FmxCell%3E%3C%2Froot%3E%3C%2FmxGraphModel%3E&lt;/span&gt;" style="rounded=1;whiteSpace=wrap;html=1;fillColor=#f8cecc;strokeColor=#b85450;" vertex="1" parent="1">
          <mxGeometry x="3950" y="-160" width="120" height="60" as="geometry" />
        </mxCell>
        <mxCell id="WBOo7a8dxVO5zlxq-I5M-14" value="비밀번호 찾기(처리)" style="rounded=1;whiteSpace=wrap;html=1;fillColor=#f8cecc;strokeColor=#b85450;" vertex="1" parent="1">
          <mxGeometry x="3940" y="-60" width="120" height="60" as="geometry" />
        </mxCell>
        <mxCell id="WBOo7a8dxVO5zlxq-I5M-22" style="edgeStyle=orthogonalEdgeStyle;rounded=0;orthogonalLoop=1;jettySize=auto;html=1;exitX=0.5;exitY=1;exitDx=0;exitDy=0;" edge="1" parent="1" source="WBOo7a8dxVO5zlxq-I5M-15" target="WBOo7a8dxVO5zlxq-I5M-21">
          <mxGeometry relative="1" as="geometry" />
        </mxCell>
        <mxCell id="WBOo7a8dxVO5zlxq-I5M-15" value="컨텐츠 목록" style="rounded=1;whiteSpace=wrap;html=1;fillColor=#dae8fc;strokeColor=#6c8ebf;" vertex="1" parent="1">
          <mxGeometry x="3650" y="80" width="120" height="60" as="geometry" />
        </mxCell>
        <mxCell id="WBOo7a8dxVO5zlxq-I5M-25" style="edgeStyle=orthogonalEdgeStyle;rounded=0;orthogonalLoop=1;jettySize=auto;html=1;exitX=0.25;exitY=1;exitDx=0;exitDy=0;entryX=0;entryY=0.5;entryDx=0;entryDy=0;" edge="1" parent="1" source="WBOo7a8dxVO5zlxq-I5M-16" target="WBOo7a8dxVO5zlxq-I5M-11">
          <mxGeometry relative="1" as="geometry" />
        </mxCell>
        <mxCell id="WBOo7a8dxVO5zlxq-I5M-26" style="edgeStyle=orthogonalEdgeStyle;rounded=0;orthogonalLoop=1;jettySize=auto;html=1;exitX=0.25;exitY=1;exitDx=0;exitDy=0;entryX=0;entryY=0.5;entryDx=0;entryDy=0;" edge="1" parent="1" source="WBOo7a8dxVO5zlxq-I5M-16" target="WBOo7a8dxVO5zlxq-I5M-12">
          <mxGeometry relative="1" as="geometry" />
        </mxCell>
        <mxCell id="WBOo7a8dxVO5zlxq-I5M-16" value="로그인" style="rounded=1;whiteSpace=wrap;html=1;fillColor=#dae8fc;strokeColor=#6c8ebf;" vertex="1" parent="1">
          <mxGeometry x="3620" y="-240" width="120" height="60" as="geometry" />
        </mxCell>
        <mxCell id="WBOo7a8dxVO5zlxq-I5M-35" style="edgeStyle=orthogonalEdgeStyle;rounded=0;orthogonalLoop=1;jettySize=auto;html=1;exitX=0.25;exitY=0;exitDx=0;exitDy=0;entryX=0.75;entryY=0;entryDx=0;entryDy=0;" edge="1" parent="1" source="WBOo7a8dxVO5zlxq-I5M-17" target="t65GG9oc5vfODjaYZF34-1">
          <mxGeometry relative="1" as="geometry" />
        </mxCell>
        <mxCell id="WBOo7a8dxVO5zlxq-I5M-17" value="회원가입 성공&lt;br&gt;페이지" style="rounded=1;whiteSpace=wrap;html=1;fillColor=#dae8fc;strokeColor=#6c8ebf;" vertex="1" parent="1">
          <mxGeometry x="4320" y="-340" width="130" height="60" as="geometry" />
        </mxCell>
        <mxCell id="WBOo7a8dxVO5zlxq-I5M-21" value="컨텐츠 상세보기" style="rounded=1;whiteSpace=wrap;html=1;fillColor=#dae8fc;strokeColor=#6c8ebf;" vertex="1" parent="1">
          <mxGeometry x="3650" y="394" width="120" height="60" as="geometry" />
        </mxCell>
        <mxCell id="WBOo7a8dxVO5zlxq-I5M-31" value="리뷰 목록" style="rounded=1;whiteSpace=wrap;html=1;fillColor=#dae8fc;strokeColor=#6c8ebf;" vertex="1" parent="1">
          <mxGeometry x="3740" y="555" width="120" height="60" as="geometry" />
        </mxCell>
        <mxCell id="WBOo7a8dxVO5zlxq-I5M-32" value="리뷰 등록" style="rounded=1;whiteSpace=wrap;html=1;fillColor=#f8cecc;strokeColor=#b85450;" vertex="1" parent="1">
          <mxGeometry x="3910" y="472" width="120" height="60" as="geometry" />
        </mxCell>
        <mxCell id="WBOo7a8dxVO5zlxq-I5M-33" value="리뷰 삭제" style="rounded=1;whiteSpace=wrap;html=1;fillColor=#f8cecc;strokeColor=#b85450;" vertex="1" parent="1">
          <mxGeometry x="3910" y="570" width="120" height="60" as="geometry" />
        </mxCell>
        <mxCell id="WBOo7a8dxVO5zlxq-I5M-34" value="리뷰 수정" style="rounded=1;whiteSpace=wrap;html=1;fillColor=#f8cecc;strokeColor=#b85450;" vertex="1" parent="1">
          <mxGeometry x="3900" y="670" width="120" height="60" as="geometry" />
        </mxCell>
        <mxCell id="WBOo7a8dxVO5zlxq-I5M-38" value="새 비밀번호 설정" style="rounded=1;whiteSpace=wrap;html=1;fillColor=#dae8fc;strokeColor=#6c8ebf;" vertex="1" parent="1">
          <mxGeometry x="4100" y="-60" width="120" height="60" as="geometry" />
        </mxCell>
        <mxCell id="WBOo7a8dxVO5zlxq-I5M-39" value="새 비밀번호 처리" style="rounded=1;whiteSpace=wrap;html=1;fillColor=#f8cecc;strokeColor=#b85450;" vertex="1" parent="1">
          <mxGeometry x="4270" y="-60" width="120" height="60" as="geometry" />
        </mxCell>
        <mxCell id="WBOo7a8dxVO5zlxq-I5M-40" value="비밀번호 변경 성공" style="rounded=1;whiteSpace=wrap;html=1;fillColor=#dae8fc;strokeColor=#6c8ebf;" vertex="1" parent="1">
          <mxGeometry x="4440" y="-60" width="130" height="60" as="geometry" />
        </mxCell>
      </root>
    </mxGraphModel>
  </diagram>
</mxfile>
